<svg width="480" height="480" viewBox="0 0 480 480" fill="none" xmlns="http://www.w3.org/2000/svg">
<path fill-rule="evenodd" clip-rule="evenodd" d="M49.5 23.0756C28.325 35.7506 9.533 47.5296 7.739 49.2516C5.946 50.9736 3.471 54.4276 2.239 56.9266L0 61.4696V219.97V378.47L2.233 383C3.461 385.492 6.161 389.144 8.233 391.115C11.295 394.029 93.276 443.97 94.997 443.97C95.274 443.97 95.516 368.933 95.535 277.22L95.57 110.47L151.785 77.5186C256.591 16.0846 280.998 1.70664 281.95 0.837639C282.487 0.346639 240.556 -0.0173605 185.45 0.0006395L88 0.0316395L49.5 23.0756ZM379.163 100.676C378.798 127.969 378.5 175.568 378.5 206.453C378.5 270.926 378.609 269.934 370.662 278.086C367.132 281.706 346.336 294.659 285 331.442C240.45 358.158 202.381 381.522 200.403 383.362C198.425 385.201 195.837 388.707 194.653 391.154C192.553 395.491 192.5 396.645 192.5 437.786V479.97H239.5H286.5L286.522 465.72C286.554 444.655 288.339 441.801 309.578 428.846C316.41 424.679 344.275 407.617 371.5 390.93C398.725 374.244 424.825 358.27 429.5 355.432C471.145 330.153 473.904 328.107 477.453 319.859C479.514 315.067 479.527 314.318 479.264 216.251C479.009 120.843 478.934 117.337 477.063 113.567C475.998 111.42 473.71 108.247 471.98 106.516C469.777 104.313 391.073 56.9036 380.413 51.3586C380.09 51.1906 379.527 73.3826 379.163 100.676ZM238.25 132.715L192.5 161.323V219.761V278.2L194.75 276.734C202.741 271.528 283.142 221.661 284.197 221.256C285.247 220.853 285.5 209.414 285.5 162.363C285.5 130.247 285.163 104.001 284.75 104.038C284.337 104.076 263.413 116.98 238.25 132.715Z" fill="#69C1D0"/>
</svg>
